<?xml version="1.0" encoding="UTF-8"?>
<svg id="Layer_1" data-name="Layer 1" xmlns="http://www.w3.org/2000/svg" viewBox="0 0 86.19 118.42">
  <defs>
    <style>
      .cls-1 {
        fill: none;
      }

      .cls-2 {
        fill: #fff;
      }
    </style>
  </defs>
  <path class="cls-1" d="M44.44,.05C20.87-1.15,.43,18.46,0,43.62c.13,1.69,.27,4.31,.57,6.92,.24,2.1,.58,4.21,1.03,6.28,5.11,23.32,18.36,41.85,34.68,58.48,4.2,4.28,9.73,4.1,14.02-.25,4.2-4.26,8.24-8.73,11.94-13.43,12.56-15.94,21.96-33.3,23.77-54.05C88.22,22.37,69.93,1.34,44.44,.05Zm21.55,84.6c-5.89,8.76-12.97,16.72-19.58,25-1.92,2.41-4.08,2.6-6.32,.26-13.35-13.94-24.59-29.23-30.38-47.94-2.3-7.43-3.59-15.04-2.72-22.88C9.18,19.39,26.01,5.4,45.99,6.66c18.91,1.2,33.74,17.51,33.59,38.27-.33,13.75-5.34,27.42-13.59,39.72Z"/>
  <path class="cls-2" d="M45.99,6.66C26.01,5.4,9.18,19.39,6.99,39.09c-.87,7.84,.42,15.45,2.72,22.88,5.79,18.71,17.03,34,30.38,47.94,2.24,2.34,4.4,2.15,6.32-.26,6.61-8.28,13.69-16.24,19.58-25,8.25-12.3,13.26-25.97,13.59-39.72,.15-20.76-14.68-37.07-33.59-38.27Zm-2.43,6.88c9.35,.08,16.88,4.02,23.52,12.01-9.9-2.27-17.63-.47-23.75,6.89-8.94-7.85-10.76-8.42-23.69-7.3,6.42-7.91,14.31-11.67,23.92-11.6Zm-22.52,59.17c5.5,2.38,10.05,4.34,15.09,6.51-1.82,2.79-3.55,5.45-5.78,8.88-3.19-5.27-6.01-9.94-9.31-15.39Zm22.07,30.62c-2.63-3.03-5.06-5.65-7.24-8.47-.46-.61-.37-2.13,.07-2.87,2.21-3.76,4.56-7.45,7.01-11.06,.54-.79,1.63-1.4,2.59-1.68,6.25-1.83,12.54-3.55,18.71-5.27-5.03,10.44-12.42,20-21.14,29.35Zm-.89-30.8c-15.17-.42-27.87-12.76-28.67-27.85-.38-7.34,4.93-13.28,12.35-13.81,6.98-.49,12.93,4.44,13.66,11.57,.29,2.84,.04,5.74,.04,8.61h.21c0,2,.1,4.01-.02,6-.14,2.43,.17,4.01,3.3,4.01s3.53-1.32,3.44-3.88c-.13-4.25-.13-8.51,.03-12.75,.29-8.4,6.09-14.01,13.78-13.5,8.2,.54,13.16,6.89,12.18,15.6-1.7,15.06-14.95,26.44-30.3,26Z"/>
  <path class="cls-1" d="M60.34,30.93c-7.69-.51-13.49,5.1-13.78,13.5-.16,4.24-.16,8.5-.03,12.75,.09,2.56-.43,3.88-3.44,3.88s-3.44-1.58-3.3-4.01c.12-1.99,.02-4,.02-6h-.21c0-2.87,.25-5.77-.04-8.61-.73-7.13-6.68-12.06-13.66-11.57-7.42,.53-12.73,6.47-12.35,13.81,.8,15.09,13.5,27.43,28.67,27.85,15.35,.44,28.6-10.94,30.3-26,.98-8.71-3.98-15.06-12.18-15.6h0ZM26.56,55.26c-6.29-.08-11.41-5.22-11.45-11.5-.04-6.51,5.12-11.67,11.63-11.65,6.28,.02,11.45,5.19,11.47,11.46,.03,6.45-5.28,11.77-11.65,11.69Zm32.96,0c-6.42-.1-11.56-5.48-11.38-11.94,.16-6.31,5.38-11.3,11.69-11.21,6.46,.1,11.62,5.48,11.42,11.9-.2,6.26-5.5,11.35-11.73,11.25h0Z"/>
  <path class="cls-2" d="M26.74,32.11c-6.51-.02-11.67,5.14-11.63,11.65,.04,6.28,5.16,11.42,11.45,11.5,6.37,.08,11.68-5.24,11.65-11.69-.02-6.27-5.19-11.44-11.47-11.46Zm-.08,16.34c-2.89-.34-4.67-1.85-4.66-4.79,.01-2.93,1.75-4.65,4.66-4.63,2.9,0,4.65,1.73,4.64,4.66-.01,2.95-1.84,4.41-4.64,4.76Z"/>
  <path class="cls-2" d="M59.83,32.11c-6.31-.09-11.53,4.9-11.69,11.21-.18,6.46,4.96,11.84,11.38,11.94,6.23,.1,11.53-4.99,11.73-11.25,.2-6.42-4.96-11.8-11.42-11.9Zm-.05,16.25c-2.86,.05-4.7-1.63-4.77-4.56-.08-2.94,1.64-4.68,4.54-4.78,2.95-.1,4.44,1.71,4.84,4.31-.19,3.14-1.72,4.97-4.61,5.03Z"/>
  <path class="cls-1" d="M67.08,25.55c-9.9-2.27-17.63-.47-23.75,6.89-8.94-7.85-10.76-8.42-23.69-7.3,6.42-7.91,14.31-11.67,23.92-11.6,9.35,.08,16.88,4.02,23.52,12.01Z"/>
  <path class="cls-1" d="M64.25,73.98c-5.03,10.44-12.42,20-21.14,29.35-2.63-3.03-5.06-5.65-7.24-8.47-.46-.61-.37-2.13,.07-2.87,2.21-3.76,4.56-7.45,7.01-11.06,.54-.79,1.63-1.4,2.59-1.68,6.25-1.83,12.54-3.55,18.71-5.27Z"/>
  <path class="cls-1" d="M36.13,79.22c-1.82,2.79-3.55,5.45-5.78,8.88-3.19-5.27-6.01-9.94-9.31-15.39,5.5,2.38,10.05,4.34,15.09,6.51Z"/>
  <path class="cls-1" d="M64.39,43.33c-.19,3.14-1.72,4.97-4.61,5.03-2.86,.05-4.7-1.63-4.77-4.56-.08-2.94,1.64-4.68,4.54-4.78,2.95-.1,4.44,1.71,4.84,4.31Z"/>
  <path class="cls-1" d="M31.3,43.69c-.01,2.95-1.84,4.41-4.64,4.76-2.89-.34-4.67-1.85-4.66-4.79,.01-2.93,1.75-4.65,4.66-4.63,2.9,0,4.65,1.73,4.64,4.66Z"/>
</svg>